<mxfile host="app.diagrams.net" modified="2022-05-11T03:36:35.267Z" agent="5.0 (Windows NT 10.0; Win64; x64) AppleWebKit/537.36 (KHTML, like Gecko) Chrome/101.0.4951.54 Safari/537.36" etag="JY76K7HjMtUlbT10fPQF" version="18.0.2" type="github">
  <diagram name="Page-1" id="2cc2dc42-3aac-f2a9-1cec-7a8b7cbee084">
    <mxGraphModel dx="2277" dy="674" grid="1" gridSize="10" guides="1" tooltips="1" connect="1" arrows="1" fold="1" page="1" pageScale="1" pageWidth="1100" pageHeight="850" background="none" math="0" shadow="0">
      <root>
        <mxCell id="0" />
        <mxCell id="1" parent="0" />
        <mxCell id="7026571954dc6520-1" value="" style="strokeWidth=1;shadow=0;dashed=0;align=left;html=1;shape=mxgraph.mockup.containers.browserWindow;rSize=0;strokeColor=#666666;mainText=,;recursiveResize=0;rounded=0;labelBackgroundColor=none;fontFamily=Verdana;fontSize=12" parent="1" vertex="1">
          <mxGeometry x="-10" y="170" width="1030" height="1160" as="geometry" />
        </mxCell>
        <mxCell id="7026571954dc6520-2" value="Page 1" style="strokeWidth=1;shadow=0;dashed=0;align=center;html=1;shape=mxgraph.mockup.containers.anchor;fontSize=17;fontColor=#666666;align=left;" parent="7026571954dc6520-1" vertex="1">
          <mxGeometry x="60" y="12" width="110" height="26" as="geometry" />
        </mxCell>
        <mxCell id="7026571954dc6520-3" value="https://www.Hellenes.com" style="strokeWidth=1;shadow=0;dashed=0;align=center;html=1;shape=mxgraph.mockup.containers.anchor;rSize=0;fontSize=17;fontColor=#666666;align=left;" parent="7026571954dc6520-1" vertex="1">
          <mxGeometry x="130" y="60" width="250" height="26" as="geometry" />
        </mxCell>
        <mxCell id="7026571954dc6520-4" value="Hellenes&amp;nbsp;&lt;br style=&quot;font-size: 13px;&quot;&gt;&lt;span style=&quot;font-size: 20px;&quot;&gt;Stories of Ancient&amp;nbsp;Greece&lt;/span&gt;" style="text;html=1;points=[];align=left;verticalAlign=top;spacingTop=-4;fontSize=30;fontFamily=Verdana" parent="7026571954dc6520-1" vertex="1">
          <mxGeometry x="10" y="140" width="370" height="80" as="geometry" />
        </mxCell>
        <mxCell id="7026571954dc6520-20" value="Talk about the backstory of Greek Mythology and beliefs this will be the home page. As you go farther below each category of a Greek deity or Monster etc.. will be sectioned off. So all the nymphs will be together the Olympians will be explained and be together. I want there to be lots of cool art and pictures. Overall I want it to be very esthetic.&lt;br&gt;&lt;br&gt;&lt;br&gt;Each category is going to be in a Sperate Box and the background is going to be Greek art but On tip where all all the texts and pictures are its going to be a solid color so you could see everything." style="text;html=1;points=[];align=left;verticalAlign=top;spacingTop=-4;fontSize=12;fontFamily=Verdana;whiteSpace=wrap;" parent="7026571954dc6520-1" vertex="1">
          <mxGeometry x="240" y="410" width="500" height="240" as="geometry" />
        </mxCell>
        <mxCell id="o4SqFIvv_gL1qojJfRQL-4" value="" style="verticalLabelPosition=bottom;shadow=0;dashed=0;align=center;html=1;verticalAlign=top;strokeWidth=1;shape=mxgraph.mockup.graphics.simpleIcon;strokeColor=#999999;fontSize=20;" vertex="1" parent="7026571954dc6520-1">
          <mxGeometry x="20" y="360" width="200" height="180" as="geometry" />
        </mxCell>
        <mxCell id="o4SqFIvv_gL1qojJfRQL-5" value="" style="verticalLabelPosition=bottom;shadow=0;dashed=0;align=center;html=1;verticalAlign=top;strokeWidth=1;shape=mxgraph.mockup.graphics.simpleIcon;strokeColor=#999999;fontSize=20;" vertex="1" parent="7026571954dc6520-1">
          <mxGeometry x="760" y="430" width="240" height="230" as="geometry" />
        </mxCell>
        <mxCell id="o4SqFIvv_gL1qojJfRQL-14" value="&lt;font style=&quot;font-size: 26px;&quot;&gt;Olympians&lt;/font&gt;" style="text;html=1;points=[];align=left;verticalAlign=top;spacingTop=-4;fontSize=30;fontFamily=Verdana" vertex="1" parent="7026571954dc6520-1">
          <mxGeometry x="30" y="650" width="370" height="80" as="geometry" />
        </mxCell>
      </root>
    </mxGraphModel>
  </diagram>
</mxfile>
